#!OML:ASF F:\VICON\USERDATA\INSTALL\rory3\rory3.ASF
:FULLY-SPECIFIED
:DEGREES
222
root -7.93951 18.0115 12.6423 8.75858 79.0382 6.95421
lowerback 11.6145 5.05882 3.65997
upperback 0.251138 7.16144 -1.18444
thorax -5.6168 3.41975 -4.42098
lowerneck -20.1182 -5.67484 -11.5701
upperneck 29.4145 -6.09573 7.45042
head 14.0303 -2.75757 3.9167
rclavicle -9.66093e-014 1.35174e-014
rhumerus -30.8301 -8.08529 -81.7113
rradius 34.207
rwrist 1.64417
rhand -18.6888 9.21043
rfingers 7.12502
rthumb 7.60554 -20.6328
lclavicle -9.66093e-014 1.35174e-014
lhumerus -43.9899 18.6608 69.5704
lradius 23.4766
lwrist -14.5706
lhand -16.7095 26.9336
lfingers 7.12502
lthumb 9.51569 56.6987
rfemur 3.98488 -13.9246 10.1056
rtibia 42.1236
rfoot 9.49826 -22.3505
rtoes 8.12336
lfemur -12.6146 4.48294 -26.7746
ltibia 16.6855
lfoot -3.42018 -4.40061
ltoes 14.3787
223
root -7.80479 17.9985 12.6481 9.78786 79.4374 8.14343
lowerback 11.6362 4.92848 3.29324
upperback 0.277484 6.94155 -1.16239
thorax -5.66769 3.32022 -4.1668
lowerneck -20.1923 -5.69742 -11.5894
upperneck 29.4157 -6.14308 7.53047
head 14.0566 -2.76874 3.94354
rclavicle -4.47762e-014 7.95139e-016
rhumerus -31.1161 -8.16125 -81.8054
rradius 34.1044
rwrist 1.70847
rhand -18.7191 9.0724
rfingers 7.12502
rthumb 7.57626 -20.7719
lclavicle -4.47762e-014 7.95139e-016
lhumerus -43.7932 18.5156 69.9191
lradius 23.2179
lwrist -14.8711
lhand -16.3187 26.8626
lfingers 7.12502
lthumb 9.89266 56.6101
rfemur 3.03909 -13.6555 9.8787
rtibia 44.4306
rfoot 9.82143 -21.1805
rtoes 10.1984
lfemur -11.8435 4.4095 -27.1723
ltibia 16.3205
lfoot -3.78961 -4.49168
ltoes 9.09848
224
root -7.6695 18.001 12.652 11.3147 79.8354 9.82169
lowerback 11.6288 4.80604 2.91008
upperback 0.318258 6.72563 -1.20608
thorax -5.67774 3.22444 -3.96767
lowerneck -20.1695 -5.69833 -11.4507
upperneck 29.2877 -6.2099 7.56498
head 13.9989 -2.77816 3.9168
rclavicle -3.23025e-014 1.35174e-014
rhumerus -31.3176 -8.51661 -81.8532
rradius 33.8561
rwrist 2.11697
rhand -18.566 9.12701
rfingers 7.12502
rthumb 7.72403 -20.7119
lclavicle -3.23025e-014 1.35174e-014
lhumerus -43.4178 17.9417 70.5086
lradius 23.022
lwrist -14.7758
lhand -16.4664 27.008
lfingers 7.12502
lthumb 9.75022 56.7623
rfemur 2.16472 -13.405 9.58964
rtibia 46.528
rfoot 9.50376 -19.6862
rtoes 12.6646
lfemur -11.1221 4.1308 -27.5163
ltibia 16.1426
lfoot -3.87169 -4.68678
ltoes 10.4066
225
root -7.53634 18.0018 12.6563 12.937 80.2653 11.5945
lowerback 11.6275 4.66252 2.5662
upperback 0.381147 6.48759 -1.24767
thorax -5.66291 3.11793 -3.78317
lowerneck -20.1977 -5.67436 -11.2339
upperneck 29.1894 -6.22729 7.49181
head 13.9513 -2.7715 3.84213
rclavicle -5.39203e-015 3.97569e-016
rhumerus -31.4695 -8.94546 -81.9096
rradius 33.6501
rwrist 2.49031
rhand -18.3513 9.06484
rfingers 7.12502
rthumb 7.93128 -20.7664
lclavicle -5.39203e-015 3.97569e-016
lhumerus -42.9418 16.9155 71.4085
lradius 23.0432
lwrist -14.0129
lhand -16.9836 27.0649
lfingers 7.12502
lthumb 9.25121 56.842
rfemur 1.28242 -13.1293 9.37337
rtibia 48.4217
rfoot 9.07994 -17.7102
rtoes 14.932
lfemur -10.5403 4.05863 -27.8425
ltibia 16.2299
lfoot -4.21934 -5.02659
ltoes 11.9094
226
root -7.40451 17.9972 12.6636 13.7247 80.7545 12.5548
lowerback 11.6493 4.51048 2.2803
upperback 0.448333 6.25345 -1.16056
thorax -5.66227 3.01228 -3.49833
lowerneck -20.2136 -5.66778 -11.196
upperneck 29.1565 -6.2249 7.47516
head 13.9377 -2.76865 3.8278
rclavicle -9.83984e-015 1.47101e-014
rhumerus -31.7252 -9.27682 -81.8872
rradius 33.5601
rwrist 2.66285
rhand -18.3842 9.08158
rfingers 7.12502
rthumb 7.89951 -20.7508
lclavicle -9.83984e-015 1.47101e-014
lhumerus -42.468 15.9362 72.3589
lradius 23.0882
lwrist -13.4724
lhand -16.699 26.9901
lfingers 7.12502
lthumb 9.52575 56.7548
rfemur 0.363916 -12.7983 9.40805
rtibia 50.1693
rfoot 8.86233 -15.5645
rtoes 15.5565
lfemur -10.0084 3.82288 -27.9996
ltibia 16.4932
lfoot -4.79825 -5.0585
ltoes 10.928
227
root -7.27474 17.9904 12.6739 14.2391 81.2645 13.2865
lowerback 11.724 4.37429 2.0145
upperback 0.524935 6.04686 -1.02442
thorax -5.67972 2.91963 -3.18144
lowerneck -20.2076 -5.7191 -11.3263
upperneck 29.1378 -6.2586 7.48866
head 13.9393 -2.79673 3.84844
rclavicle 1.0625e-013 -1.86858e-014
rhumerus -31.9719 -9.69 -81.749
rradius 33.297
rwrist 2.99525
rhand -18.3243 9.33078
rfingers 7.12502
rthumb 7.95737 -20.4994
lclavicle 1.0625e-013 -1.86858e-014
lhumerus -42.0439 15.239 73.1919
lradius 23.1257
lwrist -13.4936
lhand -16.3415 27.0215
lfingers 7.12502
lthumb 9.87074 56.7701
rfemur -0.528291 -12.6198 9.51072
rtibia 51.8734
rfoot 8.68621 -13.2897
rtoes 14.2526
lfemur -9.41608 3.5575 -28.0687
ltibia 16.7372
lfoot -5.25856 -5.15448
ltoes 10.0857
228
root -7.14361 17.9862 12.6806 16.6817 81.7976 15.9051
lowerback 11.7639 4.1843 1.72456
upperback 0.570687 5.75432 -1.08494
thorax -5.69399 2.78337 -3.04087
lowerneck -20.2004 -5.7279 -11.2394
upperneck 29.1265 -6.28415 7.42835
head 13.9296 -2.80646 3.80349
rclavicle 5.06155e-014 -1.19271e-014
rhumerus -32.229 -10.3401 -81.7016
rradius 33.0167
rwrist 3.45795
rhand -17.8851 9.57206
rfingers 7.12502
rthumb 8.38123 -20.2417
lclavicle 5.06155e-014 -1.19271e-014
lhumerus -41.4031 13.8538 74.2398
lradius 22.975
lwrist -12.8122
lhand -16.7284 27.1652
lfingers 7.12502
lthumb 9.49743 56.9312
rfemur -1.46025 -12.5829 9.34095
rtibia 53.551
rfoot 8.20645 -11.1383
rtoes 12.6542
lfemur -8.83697 3.03542 -28.3479
ltibia 16.9053
lfoot -5.48891 -5.26987
ltoes 12.3747
